<svg xmlns="http://www.w3.org/2000/svg" width="100" height="100" viewBox="0 0 100 100">
  <g id="Group_10" data-name="Group 10" transform="translate(-911 -255)">
    <g id="Group_9" data-name="Group 9">
      <circle id="Ellipse_10" data-name="Ellipse 10" cx="50" cy="50" r="50" transform="translate(911 255)" fill="#bfb904"/>
      <g id="dollar" transform="translate(924.016 268.003)">
        <path id="Path_32" data-name="Path 32" d="M67.149,53.73a1,1,0,0,1-.885-1.463A33.289,33.289,0,0,0,67.127,23.5a1,1,0,1,1,1.826-.816,35.3,35.3,0,0,1-.917,30.511,1,1,0,0,1-.887.535Z"/>
        <path id="Path_33" data-name="Path 33" d="M52.871,68.07a1,1,0,0,1-.464-1.886c.869-.455,1.7-.937,2.458-1.433a1,1,0,0,1,1.091,1.677c-.815.53-1.7,1.044-2.623,1.528a1,1,0,0,1-.462.114Z"/>
        <path id="Path_34" data-name="Path 34" d="M37.025,71.993A35.045,35.045,0,0,1,12.253,61.747a1,1,0,1,1,1.414-1.414A33.05,33.05,0,0,0,45.93,68.767a1,1,0,0,1,.54,1.926,34.953,34.953,0,0,1-9.445,1.3Z"/>
        <path id="Path_35" data-name="Path 35" d="M60.88,62.19a1,1,0,0,1-.638-1.77c.034-.028.062-.058.091-.087.644-.645,1.259-1.318,1.828-2A1,1,0,1,1,63.7,59.609c-.608.732-1.264,1.451-1.952,2.138a2.971,2.971,0,0,1-.229.212,1,1,0,0,1-.639.231Z"/>
        <path id="Path_36" data-name="Path 36" d="M6.136,52.284a1,1,0,0,1-.908-.58A35.006,35.006,0,0,1,61.749,12.251a1,1,0,1,1-1.415,1.415,33.006,33.006,0,0,0-53.291,37.2,1,1,0,0,1-.907,1.42Z"/>
        <path id="Path_37" data-name="Path 37" d="M61.042,13.958H53.581a1,1,0,0,1,0-2h6.461V5.5a1,1,0,0,1,2,0v7.461A1,1,0,0,1,61.042,13.958Z"/>
        <path id="Path_38" data-name="Path 38" d="M12.958,69.5a1,1,0,0,1-1-1V61.042a1,1,0,0,1,1-1h7.461a1,1,0,0,1,0,2H13.958V68.5A1,1,0,0,1,12.958,69.5Z"/>
        <path id="Path_39" data-name="Path 39" d="M37,59A22,22,0,1,1,59,37,22,22,0,0,1,37,59Zm0-42A20,20,0,1,0,57,37,20,20,0,0,0,37,17Z"/>
        <path id="Path_40" data-name="Path 40" d="M37,38a6.375,6.375,0,1,1,6.375-6.375,1,1,0,0,1-2,0A4.375,4.375,0,1,0,37,36a1,1,0,0,1,0,2Z"/>
        <path id="Path_41" data-name="Path 41" d="M37,48.75a6.382,6.382,0,0,1-6.375-6.375,1,1,0,0,1,2,0A4.375,4.375,0,1,0,37,38a1,1,0,0,1,0-2,6.375,6.375,0,0,1,0,12.75Z"/>
        <path id="Path_42" data-name="Path 42" d="M37,51a1,1,0,0,1-1-1V24a1,1,0,0,1,2,0V50A1,1,0,0,1,37,51Z"/>
      </g>
    </g>
  </g>
</svg>
