<svg xmlns="http://www.w3.org/2000/svg" width="100" height="100" viewBox="0 0 100 100">
  <g id="Group_8" data-name="Group 8" transform="translate(-910 -879)">
    <g id="Ellipse_7" data-name="Ellipse 7" transform="translate(910 879)" fill="#0a8845" stroke="#707070" stroke-width="1">
      <circle cx="50" cy="50" r="50" stroke="none"/>
      <circle cx="50" cy="50" r="49.5" fill="none"/>
    </g>
    <g id="up-arrow" transform="translate(1010 979) rotate(180)">
      <g id="Group_2" data-name="Group 2">
        <g id="Group_1" data-name="Group 1">
          <path id="Path_30" data-name="Path 30" d="M50,0a50,50,0,1,0,50,50A50.055,50.055,0,0,0,50,0Zm0,92.254A42.254,42.254,0,1,1,92.254,50,42.3,42.3,0,0,1,50,92.254Z" fill="#0a8845"/>
        </g>
      </g>
      <g id="Group_4" data-name="Group 4" transform="translate(26.992 34.853)">
        <g id="Group_3" data-name="Group 3">
          <path id="Path_31" data-name="Path 31" d="M183.32,198.938l-19.365-19.365a3.871,3.871,0,0,0-5.461,0L139.13,198.938a3.873,3.873,0,0,0,5.461,5.461l16.615-16.615L177.859,204.4a3.861,3.861,0,0,0,5.461-5.461Z" transform="translate(-138.197 -178.446)" fill="#bfb904"/>
        </g>
      </g>
    </g>
  </g>
</svg>
